<mxfile host="Electron" modified="2023-07-24T20:15:59.747Z" agent="Mozilla/5.0 (Windows NT 10.0; Win64; x64) AppleWebKit/537.36 (KHTML, like Gecko) draw.io/21.6.1 Chrome/112.0.5615.204 Electron/24.6.1 Safari/537.36" etag="ddBcDUsyqNuHzR4ZXPwO" version="21.6.1" type="device">
  <diagram name="Страница 1" id="qovVaBUea4eLgh_Arf3O">
    <mxGraphModel dx="2058" dy="2350" grid="1" gridSize="10" guides="1" tooltips="1" connect="1" arrows="1" fold="1" page="1" pageScale="1" pageWidth="827" pageHeight="1169" math="0" shadow="0">
      <root>
        <mxCell id="0" />
        <mxCell id="1" parent="0" />
        <mxCell id="UEtEqEw6Nl__sQJl_s_K-1" value="Диалог с моделью" style="rounded=0;whiteSpace=wrap;html=1;" vertex="1" parent="1">
          <mxGeometry x="707" y="830" width="120" height="60" as="geometry" />
        </mxCell>
        <mxCell id="UEtEqEw6Nl__sQJl_s_K-2" value="Суммаризатор" style="rounded=0;whiteSpace=wrap;html=1;" vertex="1" parent="1">
          <mxGeometry x="390" y="450" width="120" height="60" as="geometry" />
        </mxCell>
        <mxCell id="UEtEqEw6Nl__sQJl_s_K-3" value="Обзор статей в фиде" style="rounded=0;whiteSpace=wrap;html=1;" vertex="1" parent="1">
          <mxGeometry x="150" y="200" width="120" height="60" as="geometry" />
        </mxCell>
        <mxCell id="UEtEqEw6Nl__sQJl_s_K-4" value="" style="endArrow=diamondThin;endFill=0;endSize=24;html=1;rounded=0;exitX=0.5;exitY=1;exitDx=0;exitDy=0;" edge="1" parent="1" source="UEtEqEw6Nl__sQJl_s_K-3" target="UEtEqEw6Nl__sQJl_s_K-2">
          <mxGeometry width="160" relative="1" as="geometry">
            <mxPoint x="230" y="350" as="sourcePoint" />
            <mxPoint x="390" y="350" as="targetPoint" />
          </mxGeometry>
        </mxCell>
        <mxCell id="UEtEqEw6Nl__sQJl_s_K-5" value="Обобщение сообщений в чате телеграм" style="rounded=0;whiteSpace=wrap;html=1;" vertex="1" parent="1">
          <mxGeometry x="330" y="200" width="120" height="60" as="geometry" />
        </mxCell>
        <mxCell id="UEtEqEw6Nl__sQJl_s_K-6" value="" style="endArrow=diamondThin;endFill=0;endSize=24;html=1;rounded=0;entryX=0.5;entryY=0;entryDx=0;entryDy=0;exitX=0.5;exitY=1;exitDx=0;exitDy=0;" edge="1" parent="1" source="UEtEqEw6Nl__sQJl_s_K-5" target="UEtEqEw6Nl__sQJl_s_K-2">
          <mxGeometry width="160" relative="1" as="geometry">
            <mxPoint x="30" y="850" as="sourcePoint" />
            <mxPoint x="190" y="850" as="targetPoint" />
          </mxGeometry>
        </mxCell>
        <mxCell id="UEtEqEw6Nl__sQJl_s_K-7" value="Переводчик" style="rounded=0;whiteSpace=wrap;html=1;" vertex="1" parent="1">
          <mxGeometry x="670" y="200" width="120" height="60" as="geometry" />
        </mxCell>
        <mxCell id="UEtEqEw6Nl__sQJl_s_K-8" value="Расшифровщик аудио" style="rounded=0;whiteSpace=wrap;html=1;" vertex="1" parent="1">
          <mxGeometry x="1040" y="450" width="120" height="60" as="geometry" />
        </mxCell>
        <mxCell id="UEtEqEw6Nl__sQJl_s_K-9" value="Обобщение текста" style="rounded=0;whiteSpace=wrap;html=1;" vertex="1" parent="1">
          <mxGeometry x="490" y="200" width="120" height="60" as="geometry" />
        </mxCell>
        <mxCell id="UEtEqEw6Nl__sQJl_s_K-10" value="" style="endArrow=diamondThin;endFill=0;endSize=24;html=1;rounded=0;entryX=0.75;entryY=0;entryDx=0;entryDy=0;exitX=0.5;exitY=1;exitDx=0;exitDy=0;" edge="1" parent="1" source="UEtEqEw6Nl__sQJl_s_K-9" target="UEtEqEw6Nl__sQJl_s_K-2">
          <mxGeometry width="160" relative="1" as="geometry">
            <mxPoint x="540" y="400" as="sourcePoint" />
            <mxPoint x="700" y="400" as="targetPoint" />
          </mxGeometry>
        </mxCell>
        <mxCell id="UEtEqEw6Nl__sQJl_s_K-11" value="Расшифровщик&amp;nbsp; голосовых сообщений из чата" style="rounded=0;whiteSpace=wrap;html=1;" vertex="1" parent="1">
          <mxGeometry x="1050" y="200" width="120" height="60" as="geometry" />
        </mxCell>
        <mxCell id="UEtEqEw6Nl__sQJl_s_K-12" value="Помощь в написании кода" style="rounded=0;whiteSpace=wrap;html=1;" vertex="1" parent="1">
          <mxGeometry x="860" y="200" width="120" height="60" as="geometry" />
        </mxCell>
        <mxCell id="UEtEqEw6Nl__sQJl_s_K-13" value="Настойщик сессии для диалога с моделью" style="rounded=0;whiteSpace=wrap;html=1;" vertex="1" parent="1">
          <mxGeometry x="720" y="600" width="120" height="60" as="geometry" />
        </mxCell>
        <mxCell id="UEtEqEw6Nl__sQJl_s_K-14" value="" style="endArrow=diamondThin;endFill=0;endSize=24;html=1;rounded=0;exitX=0.5;exitY=1;exitDx=0;exitDy=0;entryX=0.5;entryY=0;entryDx=0;entryDy=0;" edge="1" parent="1" source="UEtEqEw6Nl__sQJl_s_K-11" target="UEtEqEw6Nl__sQJl_s_K-8">
          <mxGeometry width="160" relative="1" as="geometry">
            <mxPoint x="1040" y="760" as="sourcePoint" />
            <mxPoint x="1130" y="740" as="targetPoint" />
          </mxGeometry>
        </mxCell>
        <mxCell id="UEtEqEw6Nl__sQJl_s_K-15" value="" style="endArrow=diamondThin;endFill=0;endSize=24;html=1;rounded=0;entryX=0.25;entryY=0;entryDx=0;entryDy=0;" edge="1" parent="1" source="UEtEqEw6Nl__sQJl_s_K-7" target="UEtEqEw6Nl__sQJl_s_K-13">
          <mxGeometry width="160" relative="1" as="geometry">
            <mxPoint x="830" y="820" as="sourcePoint" />
            <mxPoint x="990" y="820" as="targetPoint" />
          </mxGeometry>
        </mxCell>
        <mxCell id="UEtEqEw6Nl__sQJl_s_K-16" value="" style="endArrow=diamondThin;endFill=0;endSize=24;html=1;rounded=0;entryX=0.75;entryY=0;entryDx=0;entryDy=0;" edge="1" parent="1" source="UEtEqEw6Nl__sQJl_s_K-12" target="UEtEqEw6Nl__sQJl_s_K-13">
          <mxGeometry width="160" relative="1" as="geometry">
            <mxPoint x="880" y="900" as="sourcePoint" />
            <mxPoint x="1040" y="900" as="targetPoint" />
          </mxGeometry>
        </mxCell>
        <mxCell id="UEtEqEw6Nl__sQJl_s_K-17" value="" style="endArrow=diamondThin;endFill=0;endSize=24;html=1;rounded=0;exitX=0.5;exitY=1;exitDx=0;exitDy=0;entryX=0;entryY=0;entryDx=0;entryDy=0;" edge="1" parent="1" source="UEtEqEw6Nl__sQJl_s_K-2" target="UEtEqEw6Nl__sQJl_s_K-13">
          <mxGeometry width="160" relative="1" as="geometry">
            <mxPoint x="380" y="700" as="sourcePoint" />
            <mxPoint x="540" y="700" as="targetPoint" />
          </mxGeometry>
        </mxCell>
        <mxCell id="UEtEqEw6Nl__sQJl_s_K-18" value="Use" style="endArrow=open;endSize=12;dashed=1;html=1;rounded=0;exitX=0.5;exitY=1;exitDx=0;exitDy=0;entryX=0.5;entryY=0;entryDx=0;entryDy=0;" edge="1" parent="1" source="UEtEqEw6Nl__sQJl_s_K-13" target="UEtEqEw6Nl__sQJl_s_K-1">
          <mxGeometry width="160" relative="1" as="geometry">
            <mxPoint x="100" y="970" as="sourcePoint" />
            <mxPoint x="260" y="970" as="targetPoint" />
          </mxGeometry>
        </mxCell>
        <mxCell id="UEtEqEw6Nl__sQJl_s_K-19" value="Use" style="endArrow=open;endSize=12;dashed=1;html=1;rounded=0;exitX=0.5;exitY=1;exitDx=0;exitDy=0;entryX=1;entryY=0;entryDx=0;entryDy=0;" edge="1" parent="1" source="UEtEqEw6Nl__sQJl_s_K-8" target="UEtEqEw6Nl__sQJl_s_K-1">
          <mxGeometry width="160" relative="1" as="geometry">
            <mxPoint x="1040" y="860" as="sourcePoint" />
            <mxPoint x="1200" y="860" as="targetPoint" />
          </mxGeometry>
        </mxCell>
        <mxCell id="UEtEqEw6Nl__sQJl_s_K-20" value="OpenAI" style="rounded=0;whiteSpace=wrap;html=1;" vertex="1" parent="1">
          <mxGeometry x="530" y="980" width="120" height="60" as="geometry" />
        </mxCell>
        <mxCell id="UEtEqEw6Nl__sQJl_s_K-21" value="" style="endArrow=diamondThin;endFill=0;endSize=24;html=1;rounded=0;exitX=0.25;exitY=0;exitDx=0;exitDy=0;entryX=0.25;entryY=1;entryDx=0;entryDy=0;" edge="1" parent="1" source="UEtEqEw6Nl__sQJl_s_K-20" target="UEtEqEw6Nl__sQJl_s_K-1">
          <mxGeometry width="160" relative="1" as="geometry">
            <mxPoint x="590" y="920" as="sourcePoint" />
            <mxPoint x="750" y="920" as="targetPoint" />
          </mxGeometry>
        </mxCell>
        <mxCell id="UEtEqEw6Nl__sQJl_s_K-22" value="" style="rounded=0;whiteSpace=wrap;html=1;" vertex="1" parent="1">
          <mxGeometry x="740" y="980" width="120" height="60" as="geometry" />
        </mxCell>
        <mxCell id="UEtEqEw6Nl__sQJl_s_K-23" value="" style="endArrow=diamondThin;endFill=0;endSize=24;html=1;rounded=0;entryX=0.5;entryY=1;entryDx=0;entryDy=0;exitX=0.5;exitY=0;exitDx=0;exitDy=0;" edge="1" parent="1" source="UEtEqEw6Nl__sQJl_s_K-22" target="UEtEqEw6Nl__sQJl_s_K-1">
          <mxGeometry width="160" relative="1" as="geometry">
            <mxPoint x="1190" y="1040" as="sourcePoint" />
            <mxPoint x="1350" y="1040" as="targetPoint" />
          </mxGeometry>
        </mxCell>
        <mxCell id="UEtEqEw6Nl__sQJl_s_K-24" value="Телеграм бот" style="html=1;whiteSpace=wrap;" vertex="1" parent="1">
          <mxGeometry x="930" y="-125" width="110" height="50" as="geometry" />
        </mxCell>
        <mxCell id="UEtEqEw6Nl__sQJl_s_K-25" value="Создание периодических задач" style="rounded=0;whiteSpace=wrap;html=1;" vertex="1" parent="1">
          <mxGeometry x="840" y="10" width="120" height="60" as="geometry" />
        </mxCell>
        <mxCell id="UEtEqEw6Nl__sQJl_s_K-26" value="Публикация сообщений в чатах" style="rounded=0;whiteSpace=wrap;html=1;" vertex="1" parent="1">
          <mxGeometry x="1000" y="10" width="120" height="60" as="geometry" />
        </mxCell>
        <mxCell id="UEtEqEw6Nl__sQJl_s_K-27" value="Сервисы" style="rounded=0;whiteSpace=wrap;html=1;" vertex="1" parent="1">
          <mxGeometry x="260" y="-135" width="120" height="60" as="geometry" />
        </mxCell>
        <mxCell id="UEtEqEw6Nl__sQJl_s_K-28" value="Обработка входных сообщений" style="rounded=0;whiteSpace=wrap;html=1;" vertex="1" parent="1">
          <mxGeometry x="1157" y="10" width="120" height="60" as="geometry" />
        </mxCell>
        <mxCell id="UEtEqEw6Nl__sQJl_s_K-29" value="Выполнение разовых задач" style="rounded=0;whiteSpace=wrap;html=1;" vertex="1" parent="1">
          <mxGeometry x="150" y="10" width="120" height="60" as="geometry" />
        </mxCell>
        <mxCell id="UEtEqEw6Nl__sQJl_s_K-30" value="Выполнение периодических задач" style="rounded=0;whiteSpace=wrap;html=1;" vertex="1" parent="1">
          <mxGeometry x="300" y="10" width="120" height="60" as="geometry" />
        </mxCell>
        <mxCell id="UEtEqEw6Nl__sQJl_s_K-31" value="Планировщик" style="rounded=0;whiteSpace=wrap;html=1;" vertex="1" parent="1">
          <mxGeometry x="570" y="-135" width="120" height="60" as="geometry" />
        </mxCell>
        <mxCell id="UEtEqEw6Nl__sQJl_s_K-32" value="Запуск сервисов по расписанию" style="rounded=0;whiteSpace=wrap;html=1;" vertex="1" parent="1">
          <mxGeometry x="570" y="20" width="120" height="60" as="geometry" />
        </mxCell>
      </root>
    </mxGraphModel>
  </diagram>
</mxfile>
